# xmcd
#
# Track frame offsets: 
#        150
#        12955
#        27015
#        39865
#        62150
#        77260
#        91245
#        103642
#        118395
#        129427
#
# Disc length: 1918 seconds
#
# Revision: 11
# Processed by: cddbd v1.5.2PL0 Copyright (c) Steve Scherf et al.
# Submitted via: ExactAudioCopy v0.99pb5
#
DISCID=6f077c0a
DTITLE=Dwight Yoakam - Guitars, Cadillacs, Etc., Etc
DYEAR=1986
DGENRE=Country
TTITLE0=Honky Tonk Man
TTITLE1=It Won't Hurt
TTITLE2=I'll Be Gone
TTITLE3=South Of Cincinnati
TTITLE4=Bury Me
TTITLE5=Guitars, Cadillacs
TTITLE6=Twenty Years
TTITLE7=Ring Of Fire
TTITLE8=Miner's Prayer
TTITLE9=Heartaches By The Number
EXTD=(c)1986 Reprise Records - WEA\nupc 07599253722\nProduced by Peter
EXTD=Anderson\nArranged by Pete.Anderson and Dwight.Yoakam
EXTT0=
EXTT1=
EXTT2=
EXTT3=
EXTT4=
EXTT5=
EXTT6=
EXTT7=
EXTT8=
EXTT9=
PLAYORDER=
